<?xml version="1.0" encoding="utf-8"?>
<!-- Generator: Adobe Illustrator 16.0.0, SVG Export Plug-In . SVG Version: 6.00 Build 0)  -->
<!DOCTYPE svg PUBLIC "-//W3C//DTD SVG 1.1//EN" "http://www.w3.org/Graphics/SVG/1.1/DTD/svg11.dtd">
<svg version="1.1" id="Layer_1" xmlns="http://www.w3.org/2000/svg" xmlns:xlink="http://www.w3.org/1999/xlink" x="0px" y="0px"
	 width="800px" height="600px" viewBox="0 0 800 600" enable-background="new 0 0 800 600" xml:space="preserve">
<g>
	<linearGradient id="SVGID_1_" gradientUnits="userSpaceOnUse" x1="229.1235" y1="-22.1865" x2="723.1921" y2="544.5383">
		<stop  offset="0" style="stop-color:#FF2600"/>
		<stop  offset="0.3006" style="stop-color:#F3702E"/>
		<stop  offset="0.4448" style="stop-color:#F14B6F"/>
		<stop  offset="0.5031" style="stop-color:#F03C8B"/>
		<stop  offset="0.5532" style="stop-color:#EA3C8C"/>
		<stop  offset="0.6181" style="stop-color:#DA3D8F"/>
		<stop  offset="0.6912" style="stop-color:#BF3F93"/>
		<stop  offset="0.7696" style="stop-color:#9A4199"/>
		<stop  offset="0.8282" style="stop-color:#7A439F"/>
		<stop  offset="1" style="stop-color:#3D469F"/>
	</linearGradient>
	<path fill="url(#SVGID_1_)" d="M550.828,427.457h0.041c0,27.633,22.893,50.381,52.369,53.446V326.315h-0.041
		c0-27.632-22.891-50.382-52.369-53.445V427.457z"/>
	<g>
		<linearGradient id="SVGID_2_" gradientUnits="userSpaceOnUse" x1="416.3301" y1="-185.3633" x2="910.3733" y2="381.3323">
			<stop  offset="0" style="stop-color:#FF2600"/>
			<stop  offset="0.3006" style="stop-color:#F3702E"/>
			<stop  offset="0.4448" style="stop-color:#F14B6F"/>
			<stop  offset="0.5031" style="stop-color:#F03C8B"/>
			<stop  offset="0.5532" style="stop-color:#EA3C8C"/>
			<stop  offset="0.6181" style="stop-color:#DA3D8F"/>
			<stop  offset="0.6912" style="stop-color:#BF3F93"/>
			<stop  offset="0.7696" style="stop-color:#9A4199"/>
			<stop  offset="0.8282" style="stop-color:#7A439F"/>
			<stop  offset="1" style="stop-color:#3D469F"/>
		</linearGradient>
		<path fill="url(#SVGID_2_)" d="M634.768,63.436c0,0,0,0,0-0.002c0-13.239-10.73-23.97-23.969-23.97c-0.002,0-0.002,0-0.004,0
			C610.795,52.704,621.529,63.432,634.768,63.436z"/>
		<linearGradient id="SVGID_3_" gradientUnits="userSpaceOnUse" x1="401.3535" y1="-172.3125" x2="895.4019" y2="394.389">
			<stop  offset="0" style="stop-color:#FF2600"/>
			<stop  offset="0.3006" style="stop-color:#F3702E"/>
			<stop  offset="0.4448" style="stop-color:#F14B6F"/>
			<stop  offset="0.5031" style="stop-color:#F03C8B"/>
			<stop  offset="0.5532" style="stop-color:#EA3C8C"/>
			<stop  offset="0.6181" style="stop-color:#DA3D8F"/>
			<stop  offset="0.6912" style="stop-color:#BF3F93"/>
			<stop  offset="0.7696" style="stop-color:#9A4199"/>
			<stop  offset="0.8282" style="stop-color:#7A439F"/>
			<stop  offset="1" style="stop-color:#3D469F"/>
		</linearGradient>
		<path fill="url(#SVGID_3_)" d="M610.799,87.411c13.238,0,23.967-10.73,23.969-23.975c-13.238,0.003-23.973,10.734-23.973,23.973
			c0-13.241-10.732-23.973-23.973-23.973c13.238,0,23.971-10.731,23.973-23.972c-13.242,0.003-23.979,10.732-23.979,23.97
			C586.816,76.678,597.557,87.411,610.799,87.411z"/>
	</g>
	<linearGradient id="SVGID_4_" gradientUnits="userSpaceOnUse" x1="63.3525" y1="122.3408" x2="557.416" y2="689.0597">
		<stop  offset="0" style="stop-color:#FF2600"/>
		<stop  offset="0.3006" style="stop-color:#F3702E"/>
		<stop  offset="0.4448" style="stop-color:#F14B6F"/>
		<stop  offset="0.5031" style="stop-color:#F03C8B"/>
		<stop  offset="0.5532" style="stop-color:#EA3C8C"/>
		<stop  offset="0.6181" style="stop-color:#DA3D8F"/>
		<stop  offset="0.6912" style="stop-color:#BF3F93"/>
		<stop  offset="0.7696" style="stop-color:#9A4199"/>
		<stop  offset="0.8282" style="stop-color:#7A439F"/>
		<stop  offset="1" style="stop-color:#3D469F"/>
	</linearGradient>
	<path fill="url(#SVGID_4_)" d="M129.273,597.295l146.973,0.117l265.283-265.293l-39.318,0.053
		c2.584-11.812,3.987-24.054,3.987-36.631c0-95.197-77.452-172.645-172.647-172.645c-95.196,0-172.645,77.447-172.645,172.645
		c0,46.863,18.781,89.408,49.197,120.548l-0.032,0.03l9.578,9.613L325.01,320.795c2.652,1.017,5.529,1.582,8.541,1.582
		c13.185,0,23.873-10.689,23.873-23.873s-10.688-23.871-23.873-23.871c-13.184,0-23.871,10.688-23.871,23.871
		c0,5.203,1.668,10.012,4.495,13.935L282.385,344.1c-12.043-12.666-19.482-29.738-19.482-48.559
		c0-38.958,31.692-70.653,70.648-70.653c38.955,0,70.646,31.694,70.646,70.653c0,13.909-4.075,26.864-11.048,37.805L129.273,597.295
		z M270.652,583.813l-108.79,0.078l237.942-238.013l108.923-0.146L270.652,583.813z M458.692,332.23l-17.075,0.021
		c3.936-11.526,6.09-23.866,6.09-36.711c0-62.945-51.209-114.157-114.156-114.157c-62.948,0-114.161,51.212-114.161,114.157
		c0,30.779,12.269,58.729,32.148,79.279l-11.536,11.486c-22.808-23.497-36.883-55.51-36.883-90.766
		c0-71.916,58.51-130.426,130.431-130.426c71.919,0,130.431,58.51,130.431,130.426C463.981,308.282,462.119,320.588,458.692,332.23z
		 M174.475,295.541c0-87.714,71.358-159.074,159.076-159.074c87.717,0,159.076,71.36,159.076,159.074
		c0,12.617-1.518,24.877-4.313,36.649l-15.564,0.021c3.104-11.714,4.803-23.992,4.803-36.67
		c0-79.399-64.601-143.999-144.002-143.999c-79.403,0-144,64.599-144,143.999c0,38.986,15.588,74.387,40.841,100.339l-10.682,10.639
		C191.739,377.839,174.475,338.672,174.475,295.541z M333.551,211.317c-46.438,0-84.218,37.782-84.218,84.224
		c0,22.55,8.963,42.993,23.452,58.117l-11.64,11.596c-17.432-18.096-28.185-42.665-28.185-69.713
		c0-55.461,45.124-100.584,100.59-100.584c55.466,0,100.588,45.123,100.588,100.584c0,12.965-2.491,25.347-6.984,36.731
		l-17.918,0.025c5.438-11.114,8.532-23.571,8.532-36.757C417.769,249.099,379.986,211.317,333.551,211.317z"/>
	<linearGradient id="SVGID_5_" gradientUnits="userSpaceOnUse" x1="317.9053" y1="-99.5708" x2="811.9653" y2="467.1441">
		<stop  offset="0" style="stop-color:#FF2600"/>
		<stop  offset="0.3006" style="stop-color:#F3702E"/>
		<stop  offset="0.4448" style="stop-color:#F14B6F"/>
		<stop  offset="0.5031" style="stop-color:#F03C8B"/>
		<stop  offset="0.5532" style="stop-color:#EA3C8C"/>
		<stop  offset="0.6181" style="stop-color:#DA3D8F"/>
		<stop  offset="0.6912" style="stop-color:#BF3F93"/>
		<stop  offset="0.7696" style="stop-color:#9A4199"/>
		<stop  offset="0.8282" style="stop-color:#7A439F"/>
		<stop  offset="1" style="stop-color:#3D469F"/>
	</linearGradient>
	<rect x="550.857" y="122.459" fill="url(#SVGID_5_)" width="52.354" height="150.411"/>
	<linearGradient id="SVGID_6_" gradientUnits="userSpaceOnUse" x1="343.2827" y1="-121.7188" x2="837.362" y2="445.0183">
		<stop  offset="0" style="stop-color:#FF2600"/>
		<stop  offset="0.3006" style="stop-color:#F3702E"/>
		<stop  offset="0.4448" style="stop-color:#F14B6F"/>
		<stop  offset="0.5031" style="stop-color:#F03C8B"/>
		<stop  offset="0.5532" style="stop-color:#EA3C8C"/>
		<stop  offset="0.6181" style="stop-color:#DA3D8F"/>
		<stop  offset="0.6912" style="stop-color:#BF3F93"/>
		<stop  offset="0.7696" style="stop-color:#9A4199"/>
		<stop  offset="0.8282" style="stop-color:#7A439F"/>
		<stop  offset="1" style="stop-color:#3D469F"/>
	</linearGradient>
	<rect x="618.316" y="216.292" fill="url(#SVGID_6_)" width="52.41" height="15.056"/>
	<linearGradient id="SVGID_7_" gradientUnits="userSpaceOnUse" x1="380.5449" y1="-154.1831" x2="874.6075" y2="412.5348">
		<stop  offset="0" style="stop-color:#FF2600"/>
		<stop  offset="0.3006" style="stop-color:#F3702E"/>
		<stop  offset="0.4448" style="stop-color:#F14B6F"/>
		<stop  offset="0.5031" style="stop-color:#F03C8B"/>
		<stop  offset="0.5532" style="stop-color:#EA3C8C"/>
		<stop  offset="0.6181" style="stop-color:#DA3D8F"/>
		<stop  offset="0.6912" style="stop-color:#BF3F93"/>
		<stop  offset="0.7696" style="stop-color:#9A4199"/>
		<stop  offset="0.8282" style="stop-color:#7A439F"/>
		<stop  offset="1" style="stop-color:#3D469F"/>
	</linearGradient>
	<rect x="618.316" y="122.459" fill="url(#SVGID_7_)" width="52.41" height="52.307"/>
	<linearGradient id="SVGID_8_" gradientUnits="userSpaceOnUse" x1="357.3086" y1="-133.9204" x2="851.3668" y2="432.7925">
		<stop  offset="0" style="stop-color:#FF2600"/>
		<stop  offset="0.3006" style="stop-color:#F3702E"/>
		<stop  offset="0.4448" style="stop-color:#F14B6F"/>
		<stop  offset="0.5031" style="stop-color:#F03C8B"/>
		<stop  offset="0.5532" style="stop-color:#EA3C8C"/>
		<stop  offset="0.6181" style="stop-color:#DA3D8F"/>
		<stop  offset="0.6912" style="stop-color:#BF3F93"/>
		<stop  offset="0.7696" style="stop-color:#9A4199"/>
		<stop  offset="0.8282" style="stop-color:#7A439F"/>
		<stop  offset="1" style="stop-color:#3D469F"/>
	</linearGradient>
	<rect x="618.316" y="188.001" fill="url(#SVGID_8_)" width="52.41" height="15.055"/>
	<linearGradient id="SVGID_9_" gradientUnits="userSpaceOnUse" x1="329.2773" y1="-109.4932" x2="823.3446" y2="457.2301">
		<stop  offset="0" style="stop-color:#FF2600"/>
		<stop  offset="0.3006" style="stop-color:#F3702E"/>
		<stop  offset="0.4448" style="stop-color:#F14B6F"/>
		<stop  offset="0.5031" style="stop-color:#F03C8B"/>
		<stop  offset="0.5532" style="stop-color:#EA3C8C"/>
		<stop  offset="0.6181" style="stop-color:#DA3D8F"/>
		<stop  offset="0.6912" style="stop-color:#BF3F93"/>
		<stop  offset="0.7696" style="stop-color:#9A4199"/>
		<stop  offset="0.8282" style="stop-color:#7A439F"/>
		<stop  offset="1" style="stop-color:#3D469F"/>
	</linearGradient>
	<rect x="618.316" y="244.582" fill="url(#SVGID_9_)" width="52.41" height="15.057"/>
	<linearGradient id="SVGID_10_" gradientUnits="userSpaceOnUse" x1="267.4692" y1="-55.6143" x2="761.5378" y2="511.1105">
		<stop  offset="0" style="stop-color:#FF2600"/>
		<stop  offset="0.3006" style="stop-color:#F3702E"/>
		<stop  offset="0.4448" style="stop-color:#F14B6F"/>
		<stop  offset="0.5031" style="stop-color:#F03C8B"/>
		<stop  offset="0.5532" style="stop-color:#EA3C8C"/>
		<stop  offset="0.6181" style="stop-color:#DA3D8F"/>
		<stop  offset="0.6912" style="stop-color:#BF3F93"/>
		<stop  offset="0.7696" style="stop-color:#9A4199"/>
		<stop  offset="0.8282" style="stop-color:#7A439F"/>
		<stop  offset="1" style="stop-color:#3D469F"/>
	</linearGradient>
	<path fill="url(#SVGID_10_)" d="M670.727,326.315h-0.039c0-27.632-22.895-50.382-52.371-53.445v154.587h0.041
		c0,27.633,22.893,50.381,52.369,53.446V326.315z"/>
	<linearGradient id="SVGID_11_" gradientUnits="userSpaceOnUse" x1="335.916" y1="-115.2754" x2="829.9781" y2="451.442">
		<stop  offset="0" style="stop-color:#FF2600"/>
		<stop  offset="0.3006" style="stop-color:#F3702E"/>
		<stop  offset="0.4448" style="stop-color:#F14B6F"/>
		<stop  offset="0.5031" style="stop-color:#F03C8B"/>
		<stop  offset="0.5532" style="stop-color:#EA3C8C"/>
		<stop  offset="0.6181" style="stop-color:#DA3D8F"/>
		<stop  offset="0.6912" style="stop-color:#BF3F93"/>
		<stop  offset="0.7696" style="stop-color:#9A4199"/>
		<stop  offset="0.8282" style="stop-color:#7A439F"/>
		<stop  offset="1" style="stop-color:#3D469F"/>
	</linearGradient>
	<polygon fill="url(#SVGID_11_)" points="550.855,122.462 550.857,2.589 550.855,2.589 550.855,2.588 550.854,2.589 530.879,2.589 
		530.879,22.566 530.877,22.567 510.9,22.567 510.9,42.545 510.899,42.546 490.922,42.546 490.922,62.524 490.922,62.524 
		490.922,62.524 490.922,62.524 470.943,62.524 470.943,82.501 470.943,82.501 470.943,82.503 470.943,82.501 450.963,82.501 
		450.963,102.482 450.965,102.482 450.963,102.483 450.963,102.482 430.986,102.482 430.986,122.459 430.988,122.459 
		430.986,122.462 	"/>
	<linearGradient id="SVGID_12_" gradientUnits="userSpaceOnUse" x1="165.2593" y1="33.5229" x2="659.311" y2="600.2283">
		<stop  offset="0" style="stop-color:#FF2600"/>
		<stop  offset="0.3006" style="stop-color:#F3702E"/>
		<stop  offset="0.4448" style="stop-color:#F14B6F"/>
		<stop  offset="0.5031" style="stop-color:#F03C8B"/>
		<stop  offset="0.5532" style="stop-color:#EA3C8C"/>
		<stop  offset="0.6181" style="stop-color:#DA3D8F"/>
		<stop  offset="0.6912" style="stop-color:#BF3F93"/>
		<stop  offset="0.7696" style="stop-color:#9A4199"/>
		<stop  offset="0.8282" style="stop-color:#7A439F"/>
		<stop  offset="1" style="stop-color:#3D469F"/>
	</linearGradient>
	<path fill="url(#SVGID_12_)" d="M598.68,570.797c6.846,0,12.377-5.374,12.719-12.132c0.318,6.783,5.918,12.13,12.783,12.13
		c0.418,0,0.828-0.002,1.242-0.002h11.492v-11.494c0-0.416,0.004-0.822,0.004-1.241c0-6.896-5.402-12.515-12.229-12.782
		c6.803-0.295,12.229-5.851,12.229-12.727v-12.796h-12.799l0,0c-6.842,0-12.375,5.372-12.719,12.132
		c-0.318-6.783-5.914-12.129-12.781-12.129c-0.418,0-0.828,0-1.24,0h-11.494v11.493c0,0.419-0.002,0.823-0.002,1.241
		c0,6.895,5.4,12.514,12.229,12.785c-6.805,0.294-12.229,5.848-12.229,12.724v12.798H598.68L598.68,570.797z"/>
	<linearGradient id="SVGID_13_" gradientUnits="userSpaceOnUse" x1="92.4258" y1="97.0088" x2="586.4819" y2="663.7193">
		<stop  offset="0" style="stop-color:#FF2600"/>
		<stop  offset="0.3006" style="stop-color:#F3702E"/>
		<stop  offset="0.4448" style="stop-color:#F14B6F"/>
		<stop  offset="0.5031" style="stop-color:#F03C8B"/>
		<stop  offset="0.5532" style="stop-color:#EA3C8C"/>
		<stop  offset="0.6181" style="stop-color:#DA3D8F"/>
		<stop  offset="0.6912" style="stop-color:#BF3F93"/>
		<stop  offset="0.7696" style="stop-color:#9A4199"/>
		<stop  offset="0.8282" style="stop-color:#7A439F"/>
		<stop  offset="1" style="stop-color:#3D469F"/>
	</linearGradient>
	<path fill="url(#SVGID_13_)" d="M550.857,493.255v25.955h-47.016v-25.955H399.809l-104.091,104.04h208.124v-25.954h47.016v25.765
		h119.869V493.255H550.857z M417.525,579.565v-68.583h68.585l0.001,68.583H417.525z M550.857,556.709h-47.016V533.84h47.016V556.709
		z M659.875,586.253h-98.162v-82.145h98.162V586.253z"/>
	<linearGradient id="SVGID_14_" gradientUnits="userSpaceOnUse" x1="74.5894" y1="112.5723" x2="568.6373" y2="679.2734">
		<stop  offset="0" style="stop-color:#FF2600"/>
		<stop  offset="0.3006" style="stop-color:#F3702E"/>
		<stop  offset="0.4448" style="stop-color:#F14B6F"/>
		<stop  offset="0.5031" style="stop-color:#F03C8B"/>
		<stop  offset="0.5532" style="stop-color:#EA3C8C"/>
		<stop  offset="0.6181" style="stop-color:#DA3D8F"/>
		<stop  offset="0.6912" style="stop-color:#BF3F93"/>
		<stop  offset="0.7696" style="stop-color:#9A4199"/>
		<stop  offset="0.8282" style="stop-color:#7A439F"/>
		<stop  offset="1" style="stop-color:#3D469F"/>
	</linearGradient>
	<path fill="url(#SVGID_14_)" d="M472.222,524.873h-40.808v40.805h40.808V524.873z M445.289,551.804v-13.058h13.059v13.058H445.289z
		"/>
	<g>
		<linearGradient id="SVGID_15_" gradientUnits="userSpaceOnUse" x1="18.314" y1="161.5981" x2="512.3838" y2="728.3244">
			<stop  offset="0" style="stop-color:#FF2600"/>
			<stop  offset="0.3006" style="stop-color:#F3702E"/>
			<stop  offset="0.4448" style="stop-color:#F14B6F"/>
			<stop  offset="0.5031" style="stop-color:#F03C8B"/>
			<stop  offset="0.5532" style="stop-color:#EA3C8C"/>
			<stop  offset="0.6181" style="stop-color:#DA3D8F"/>
			<stop  offset="0.6912" style="stop-color:#BF3F93"/>
			<stop  offset="0.7696" style="stop-color:#9A4199"/>
			<stop  offset="0.8282" style="stop-color:#7A439F"/>
			<stop  offset="1" style="stop-color:#3D469F"/>
		</linearGradient>
		<rect x="294.737" y="480.376" fill="url(#SVGID_15_)" width="23.197" height="23.196"/>
		<linearGradient id="SVGID_16_" gradientUnits="userSpaceOnUse" x1="42.9927" y1="140.1025" x2="537.0479" y2="706.8119">
			<stop  offset="0" style="stop-color:#FF2600"/>
			<stop  offset="0.3006" style="stop-color:#F3702E"/>
			<stop  offset="0.4448" style="stop-color:#F14B6F"/>
			<stop  offset="0.5031" style="stop-color:#F03C8B"/>
			<stop  offset="0.5532" style="stop-color:#EA3C8C"/>
			<stop  offset="0.6181" style="stop-color:#DA3D8F"/>
			<stop  offset="0.6912" style="stop-color:#BF3F93"/>
			<stop  offset="0.7696" style="stop-color:#9A4199"/>
			<stop  offset="0.8282" style="stop-color:#7A439F"/>
			<stop  offset="1" style="stop-color:#3D469F"/>
		</linearGradient>
		<rect x="317.935" y="457.181" fill="url(#SVGID_16_)" width="23.192" height="23.195"/>
		<linearGradient id="SVGID_17_" gradientUnits="userSpaceOnUse" x1="67.6343" y1="118.5669" x2="561.7336" y2="685.327">
			<stop  offset="0" style="stop-color:#FF2600"/>
			<stop  offset="0.3006" style="stop-color:#F3702E"/>
			<stop  offset="0.4448" style="stop-color:#F14B6F"/>
			<stop  offset="0.5031" style="stop-color:#F03C8B"/>
			<stop  offset="0.5532" style="stop-color:#EA3C8C"/>
			<stop  offset="0.6181" style="stop-color:#DA3D8F"/>
			<stop  offset="0.6912" style="stop-color:#BF3F93"/>
			<stop  offset="0.7696" style="stop-color:#9A4199"/>
			<stop  offset="0.8282" style="stop-color:#7A439F"/>
			<stop  offset="1" style="stop-color:#3D469F"/>
		</linearGradient>
		<rect x="341.128" y="433.985" fill="url(#SVGID_17_)" width="23.196" height="23.196"/>
		<linearGradient id="SVGID_18_" gradientUnits="userSpaceOnUse" x1="123.5093" y1="69.9038" x2="617.5645" y2="636.6132">
			<stop  offset="0" style="stop-color:#FF2600"/>
			<stop  offset="0.3006" style="stop-color:#F3702E"/>
			<stop  offset="0.4448" style="stop-color:#F14B6F"/>
			<stop  offset="0.5031" style="stop-color:#F03C8B"/>
			<stop  offset="0.5532" style="stop-color:#EA3C8C"/>
			<stop  offset="0.6181" style="stop-color:#DA3D8F"/>
			<stop  offset="0.6912" style="stop-color:#BF3F93"/>
			<stop  offset="0.7696" style="stop-color:#9A4199"/>
			<stop  offset="0.8282" style="stop-color:#7A439F"/>
			<stop  offset="1" style="stop-color:#3D469F"/>
		</linearGradient>
		<polygon fill="url(#SVGID_18_)" points="432.1,357.045 378.353,410.791 364.324,410.791 364.324,433.985 387.518,433.986 
			387.518,419.956 450.428,357.045 		"/>
		<linearGradient id="SVGID_19_" gradientUnits="userSpaceOnUse" x1="-34.4507" y1="207.6118" x2="459.6091" y2="774.3265">
			<stop  offset="0" style="stop-color:#FF2600"/>
			<stop  offset="0.3006" style="stop-color:#F3702E"/>
			<stop  offset="0.4448" style="stop-color:#F14B6F"/>
			<stop  offset="0.5031" style="stop-color:#F03C8B"/>
			<stop  offset="0.5532" style="stop-color:#EA3C8C"/>
			<stop  offset="0.6181" style="stop-color:#DA3D8F"/>
			<stop  offset="0.6912" style="stop-color:#BF3F93"/>
			<stop  offset="0.7696" style="stop-color:#9A4199"/>
			<stop  offset="0.8282" style="stop-color:#7A439F"/>
			<stop  offset="1" style="stop-color:#3D469F"/>
		</linearGradient>
		<polygon fill="url(#SVGID_19_)" points="271.542,517.603 214.424,574.719 232.754,574.719 280.706,526.767 294.736,526.767 
			294.736,503.573 271.542,503.573 		"/>
	</g>
</g>
</svg>
